# xmcd
#
# Track frame offsets:
#	150
#	20367
#	37686
#	56934
#	74794
#	93433
#	110468
#	132579
#	147444
#	167438
#	186145
#	204141
#
# Disc length: 2971 seconds
#
# Revision: 1
# Processed by: cddbd v1.5.2PL0 Copyright (c) Steve Scherf et al.
# Submitted via: audiograbber 1.83.01
#
DISCID=a90b990c
DTITLE=Randy Rogers Band - Just A Matter of Time
DYEAR=2006
DGENRE=Country
TTITLE0=Better Off Wrong
TTITLE1=Kiss Me In the Dark
TTITLE2=One More Goodbye
TTITLE3=Just A Matter of Time
TTITLE4=You Could've Left Me
TTITLE5=You Could Change My Mind
TTITLE6=Before I Believe It's True
TTITLE7=You Start Over Your Way
TTITLE8=If Anyone Asks
TTITLE9=You Don't Know Me
TTITLE10=If I Told You the Truth
TTITLE11=Whiskey's Got A Hold On Me
EXTD=
EXTT0=
EXTT1=
EXTT2=
EXTT3=
EXTT4=
EXTT5=
EXTT6=
EXTT7=
EXTT8=
EXTT9=
EXTT10=
EXTT11=
PLAYORDER=
